{
    "asset" : {
        "generator" : "Khronos glTF Blender I/O v1.4.40",
        "version" : "2.0"
    },
    "scene" : 0,
    "scenes" : [
        {
            "name" : "Scene",
            "nodes" : [
                0
            ]
        }
    ],
    "nodes" : [
        {
            "mesh" : 0,
            "name" : "body-skin"
        }
    ],
    "materials" : [
        {
            "doubleSided" : true,
            "emissiveFactor" : [
                1,
                1,
                1
            ],
            "emissiveTexture" : {
                "index" : 0,
                "texCoord" : 0
            },
            "name" : "body-Skin.001_BAKED",
            "pbrMetallicRoughness" : {
                "baseColorFactor" : [
                    0.800000011920929,
                    0.800000011920929,
                    0.800000011920929,
                    1
                ],
                "metallicFactor" : 0,
                "roughnessFactor" : 0.5
            }
        }
    ],
    "meshes" : [
        {
            "name" : "Vert.097",
            "primitives" : [
                {
                    "attributes" : {
                        "POSITION" : 0,
                        "NORMAL" : 1,
                        "TEXCOORD_0" : 2
                    },
                    "indices" : 3,
                    "material" : 0
                },
                {
                    "attributes" : {
                        "POSITION" : 4,
                        "NORMAL" : 5,
                        "TEXCOORD_0" : 6
                    },
                    "indices" : 7,
                    "material" : 0
                }
            ]
        }
    ],
    "textures" : [
        {
            "sampler" : 0,
            "source" : 0
        }
    ],
    "images" : [
        {
            "bufferView" : 4,
            "mimeType" : "image/png",
            "name" : "body-512"
        }
    ],
    "accessors" : [
        {
            "bufferView" : 0,
            "componentType" : 5126,
            "count" : 5582,
            "max" : [
                0.6064955592155457,
                1.8845127820968628,
                0.18618258833885193
            ],
            "min" : [
                -0.6064955592155457,
                0.02478632889688015,
                -0.1827641874551773
            ],
            "type" : "VEC3"
        },
        {
            "bufferView" : 1,
            "componentType" : 5126,
            "count" : 5582,
            "type" : "VEC3"
        },
        {
            "bufferView" : 2,
            "componentType" : 5126,
            "count" : 5582,
            "type" : "VEC2"
        },
        {
            "bufferView" : 3,
            "componentType" : 5123,
            "count" : 24576,
            "type" : "SCALAR"
        },
        {
            "bufferView" : 5,
            "componentType" : 5126,
            "count" : 918,
            "max" : [
                0.07366105169057846,
                1.7628298997879028,
                0.1562233567237854
            ],
            "min" : [
                -0.07366108894348145,
                1.705467700958252,
                0.13254642486572266
            ],
            "type" : "VEC3"
        },
        {
            "bufferView" : 6,
            "componentType" : 5126,
            "count" : 918,
            "type" : "VEC3"
        },
        {
            "bufferView" : 7,
            "componentType" : 5126,
            "count" : 918,
            "type" : "VEC2"
        },
        {
            "bufferView" : 8,
            "componentType" : 5123,
            "count" : 3288,
            "type" : "SCALAR"
        }
    ],
    "bufferViews" : [
        {
            "buffer" : 0,
            "byteLength" : 66984,
            "byteOffset" : 0
        },
        {
            "buffer" : 0,
            "byteLength" : 66984,
            "byteOffset" : 66984
        },
        {
            "buffer" : 0,
            "byteLength" : 44656,
            "byteOffset" : 133968
        },
        {
            "buffer" : 0,
            "byteLength" : 49152,
            "byteOffset" : 178624
        },
        {
            "buffer" : 0,
            "byteLength" : 1050873,
            "byteOffset" : 227776
        },
        {
            "buffer" : 0,
            "byteLength" : 11016,
            "byteOffset" : 1278652
        },
        {
            "buffer" : 0,
            "byteLength" : 11016,
            "byteOffset" : 1289668
        },
        {
            "buffer" : 0,
            "byteLength" : 7344,
            "byteOffset" : 1300684
        },
        {
            "buffer" : 0,
            "byteLength" : 6576,
            "byteOffset" : 1308028
        }
    ],
    "samplers" : [
        {
            "magFilter" : 9729,
            "minFilter" : 9986
        }
    ],
    "buffers" : [
        {
            "byteLength" : 1314604,
            "uri" : "data:application/octet-stream;base64,"
        }
    ]
}
