{
    "asset" : {
        "generator" : "Khronos glTF Blender I/O v1.4.40",
        "version" : "2.0"
    },
    "scene" : 0,
    "scenes" : [
        {
            "name" : "Scene",
            "nodes" : [
                0
            ]
        }
    ],
    "nodes" : [
        {
            "mesh" : 0,
            "name" : "suit-red-bottom"
        }
    ],
    "materials" : [
        {
            "doubleSided" : true,
            "emissiveFactor" : [
                1,
                1,
                1
            ],
            "emissiveTexture" : {
                "index" : 0,
                "texCoord" : 0
            },
            "name" : "Suit.001.Red.bottom.004_BAKED.001",
            "pbrMetallicRoughness" : {}
        }
    ],
    "meshes" : [
        {
            "name" : "Vert.095",
            "primitives" : [
                {
                    "attributes" : {
                        "POSITION" : 0,
                        "NORMAL" : 1,
                        "TEXCOORD_0" : 2
                    },
                    "indices" : 3,
                    "material" : 0
                },
                {
                    "attributes" : {
                        "POSITION" : 4,
                        "NORMAL" : 5,
                        "TEXCOORD_0" : 6
                    },
                    "indices" : 7,
                    "material" : 0
                },
                {
                    "attributes" : {
                        "POSITION" : 8,
                        "NORMAL" : 9,
                        "TEXCOORD_0" : 10
                    },
                    "indices" : 11,
                    "material" : 0
                },
                {
                    "attributes" : {
                        "POSITION" : 12,
                        "NORMAL" : 13,
                        "TEXCOORD_0" : 14
                    },
                    "indices" : 15,
                    "material" : 0
                },
                {
                    "attributes" : {
                        "POSITION" : 16,
                        "NORMAL" : 17,
                        "TEXCOORD_0" : 18
                    },
                    "indices" : 19,
                    "material" : 0
                }
            ]
        }
    ],
    "textures" : [
        {
            "sampler" : 0,
            "source" : 0
        }
    ],
    "images" : [
        {
            "bufferView" : 4,
            "mimeType" : "image/png",
            "name" : "qy-512"
        }
    ],
    "accessors" : [
        {
            "bufferView" : 0,
            "componentType" : 5126,
            "count" : 1465,
            "max" : [
                0.19666992127895355,
                1.4717004299163818,
                0.1743292212486267
            ],
            "min" : [
                -0.19672611355781555,
                -0.0008005052804946899,
                -0.17029404640197754
            ],
            "type" : "VEC3"
        },
        {
            "bufferView" : 1,
            "componentType" : 5126,
            "count" : 1465,
            "type" : "VEC3"
        },
        {
            "bufferView" : 2,
            "componentType" : 5126,
            "count" : 1465,
            "type" : "VEC2"
        },
        {
            "bufferView" : 3,
            "componentType" : 5123,
            "count" : 4620,
            "type" : "SCALAR"
        },
        {
            "bufferView" : 5,
            "componentType" : 5126,
            "count" : 5282,
            "max" : [
                0.2017018347978592,
                1.4757285118103027,
                0.14298616349697113
            ],
            "min" : [
                -0.2017018347978592,
                0.5437635779380798,
                -0.17808488011360168
            ],
            "type" : "VEC3"
        },
        {
            "bufferView" : 6,
            "componentType" : 5126,
            "count" : 5282,
            "type" : "VEC3"
        },
        {
            "bufferView" : 7,
            "componentType" : 5126,
            "count" : 5282,
            "type" : "VEC2"
        },
        {
            "bufferView" : 8,
            "componentType" : 5123,
            "count" : 17376,
            "type" : "SCALAR"
        },
        {
            "bufferView" : 9,
            "componentType" : 5126,
            "count" : 308,
            "max" : [
                0.15770794451236725,
                0.11747675389051437,
                0.16137516498565674
            ],
            "min" : [
                -0.15770794451236725,
                0.03707969933748245,
                -0.06016570329666138
            ],
            "type" : "VEC3"
        },
        {
            "bufferView" : 10,
            "componentType" : 5126,
            "count" : 308,
            "type" : "VEC3"
        },
        {
            "bufferView" : 11,
            "componentType" : 5126,
            "count" : 308,
            "type" : "VEC2"
        },
        {
            "bufferView" : 12,
            "componentType" : 5123,
            "count" : 624,
            "type" : "SCALAR"
        },
        {
            "bufferView" : 13,
            "componentType" : 5126,
            "count" : 258,
            "max" : [
                0.15839096903800964,
                0.1289418488740921,
                0.1727142333984375
            ],
            "min" : [
                -0.15839096903800964,
                0.015865806490182877,
                -0.06290661543607712
            ],
            "type" : "VEC3"
        },
        {
            "bufferView" : 14,
            "componentType" : 5126,
            "count" : 258,
            "type" : "VEC3"
        },
        {
            "bufferView" : 15,
            "componentType" : 5126,
            "count" : 258,
            "type" : "VEC2"
        },
        {
            "bufferView" : 16,
            "componentType" : 5123,
            "count" : 672,
            "type" : "SCALAR"
        },
        {
            "bufferView" : 17,
            "componentType" : 5126,
            "count" : 590,
            "max" : [
                0.5427334904670715,
                1.0473724603652954,
                0.07342700660228729
            ],
            "min" : [
                0.2918107509613037,
                0.7964496612548828,
                -0.1774958074092865
            ],
            "type" : "VEC3"
        },
        {
            "bufferView" : 18,
            "componentType" : 5126,
            "count" : 590,
            "type" : "VEC3"
        },
        {
            "bufferView" : 19,
            "componentType" : 5126,
            "count" : 590,
            "type" : "VEC2"
        },
        {
            "bufferView" : 20,
            "componentType" : 5123,
            "count" : 2880,
            "type" : "SCALAR"
        }
    ],
    "bufferViews" : [
        {
            "buffer" : 0,
            "byteLength" : 17580,
            "byteOffset" : 0
        },
        {
            "buffer" : 0,
            "byteLength" : 17580,
            "byteOffset" : 17580
        },
        {
            "buffer" : 0,
            "byteLength" : 11720,
            "byteOffset" : 35160
        },
        {
            "buffer" : 0,
            "byteLength" : 9240,
            "byteOffset" : 46880
        },
        {
            "buffer" : 0,
            "byteLength" : 788300,
            "byteOffset" : 56120
        },
        {
            "buffer" : 0,
            "byteLength" : 63384,
            "byteOffset" : 844420
        },
        {
            "buffer" : 0,
            "byteLength" : 63384,
            "byteOffset" : 907804
        },
        {
            "buffer" : 0,
            "byteLength" : 42256,
            "byteOffset" : 971188
        },
        {
            "buffer" : 0,
            "byteLength" : 34752,
            "byteOffset" : 1013444
        },
        {
            "buffer" : 0,
            "byteLength" : 3696,
            "byteOffset" : 1048196
        },
        {
            "buffer" : 0,
            "byteLength" : 3696,
            "byteOffset" : 1051892
        },
        {
            "buffer" : 0,
            "byteLength" : 2464,
            "byteOffset" : 1055588
        },
        {
            "buffer" : 0,
            "byteLength" : 1248,
            "byteOffset" : 1058052
        },
        {
            "buffer" : 0,
            "byteLength" : 3096,
            "byteOffset" : 1059300
        },
        {
            "buffer" : 0,
            "byteLength" : 3096,
            "byteOffset" : 1062396
        },
        {
            "buffer" : 0,
            "byteLength" : 2064,
            "byteOffset" : 1065492
        },
        {
            "buffer" : 0,
            "byteLength" : 1344,
            "byteOffset" : 1067556
        },
        {
            "buffer" : 0,
            "byteLength" : 7080,
            "byteOffset" : 1068900
        },
        {
            "buffer" : 0,
            "byteLength" : 7080,
            "byteOffset" : 1075980
        },
        {
            "buffer" : 0,
            "byteLength" : 4720,
            "byteOffset" : 1083060
        },
        {
            "buffer" : 0,
            "byteLength" : 5760,
            "byteOffset" : 1087780
        }
    ],
    "samplers" : [
        {
            "magFilter" : 9729,
            "minFilter" : 9986
        }
    ],
    "buffers" : [
        {
            "byteLength" : 1093540,
            "uri" : "data:application/octet-stream;base64,"
        }
    ]
}
