{
    "asset" : {
        "generator" : "Khronos glTF Blender I/O v1.4.40",
        "version" : "2.0"
    },
    "scene" : 0,
    "scenes" : [
        {
            "name" : "Scene",
            "nodes" : [
                0
            ]
        }
    ],
    "nodes" : [
        {
            "mesh" : 0,
            "name" : "shoes"
        }
    ],
    "materials" : [
        {
            "doubleSided" : true,
            "emissiveFactor" : [
                1,
                1,
                1
            ],
            "emissiveTexture" : {
                "index" : 0,
                "texCoord" : 0
            },
            "name" : "Shoes.001_BAKED.002",
            "pbrMetallicRoughness" : {
                "baseColorFactor" : [
                    0.800000011920929,
                    0.800000011920929,
                    0.800000011920929,
                    1
                ],
                "metallicFactor" : 0,
                "roughnessFactor" : 0.5
            }
        }
    ],
    "meshes" : [
        {
            "name" : "mesh.001",
            "primitives" : [
                {
                    "attributes" : {
                        "POSITION" : 0,
                        "NORMAL" : 1,
                        "TEXCOORD_0" : 2
                    },
                    "indices" : 3,
                    "material" : 0
                },
                {
                    "attributes" : {
                        "POSITION" : 4,
                        "NORMAL" : 5,
                        "TEXCOORD_0" : 6
                    },
                    "indices" : 7,
                    "material" : 0
                },
                {
                    "attributes" : {
                        "POSITION" : 8,
                        "NORMAL" : 9,
                        "TEXCOORD_0" : 10
                    },
                    "indices" : 11,
                    "material" : 0
                },
                {
                    "attributes" : {
                        "POSITION" : 12,
                        "NORMAL" : 13,
                        "TEXCOORD_0" : 14
                    },
                    "indices" : 15,
                    "material" : 0
                }
            ]
        }
    ],
    "textures" : [
        {
            "sampler" : 0,
            "source" : 0
        }
    ],
    "images" : [
        {
            "bufferView" : 4,
            "mimeType" : "image/png",
            "name" : "t-512"
        }
    ],
    "accessors" : [
        {
            "bufferView" : 0,
            "componentType" : 5126,
            "count" : 1737,
            "max" : [
                0.16545340418815613,
                0.0929906964302063,
                0.20596347749233246
            ],
            "min" : [
                -0.16545340418815613,
                -0.0011612407397478819,
                -0.07246691733598709
            ],
            "type" : "VEC3"
        },
        {
            "bufferView" : 1,
            "componentType" : 5126,
            "count" : 1737,
            "type" : "VEC3"
        },
        {
            "bufferView" : 2,
            "componentType" : 5126,
            "count" : 1737,
            "type" : "VEC2"
        },
        {
            "bufferView" : 3,
            "componentType" : 5123,
            "count" : 6642,
            "type" : "SCALAR"
        },
        {
            "bufferView" : 5,
            "componentType" : 5126,
            "count" : 468,
            "max" : [
                0.17261162400245667,
                0.9878327250480652,
                0.10912011563777924
            ],
            "min" : [
                -0.17261162400245667,
                0.12036752700805664,
                -0.13721664249897003
            ],
            "type" : "VEC3"
        },
        {
            "bufferView" : 6,
            "componentType" : 5126,
            "count" : 468,
            "type" : "VEC3"
        },
        {
            "bufferView" : 7,
            "componentType" : 5126,
            "count" : 468,
            "type" : "VEC2"
        },
        {
            "bufferView" : 8,
            "componentType" : 5123,
            "count" : 1968,
            "type" : "SCALAR"
        },
        {
            "bufferView" : 9,
            "componentType" : 5126,
            "count" : 288,
            "max" : [
                0.15547315776348114,
                0.15111756324768066,
                0.03948425501585007
            ],
            "min" : [
                -0.15547315776348114,
                0.11858975887298584,
                -0.057392094284296036
            ],
            "type" : "VEC3"
        },
        {
            "bufferView" : 10,
            "componentType" : 5126,
            "count" : 288,
            "type" : "VEC3"
        },
        {
            "bufferView" : 11,
            "componentType" : 5126,
            "count" : 288,
            "type" : "VEC2"
        },
        {
            "bufferView" : 12,
            "componentType" : 5123,
            "count" : 768,
            "type" : "SCALAR"
        },
        {
            "bufferView" : 13,
            "componentType" : 5126,
            "count" : 1239,
            "max" : [
                0.33676332235336304,
                1.5016281604766846,
                0.14029330015182495
            ],
            "min" : [
                -0.33676332235336304,
                0.8702846765518188,
                -0.1845940351486206
            ],
            "type" : "VEC3"
        },
        {
            "bufferView" : 14,
            "componentType" : 5126,
            "count" : 1239,
            "type" : "VEC3"
        },
        {
            "bufferView" : 15,
            "componentType" : 5126,
            "count" : 1239,
            "type" : "VEC2"
        },
        {
            "bufferView" : 16,
            "componentType" : 5123,
            "count" : 3732,
            "type" : "SCALAR"
        }
    ],
    "bufferViews" : [
        {
            "buffer" : 0,
            "byteLength" : 20844,
            "byteOffset" : 0
        },
        {
            "buffer" : 0,
            "byteLength" : 20844,
            "byteOffset" : 20844
        },
        {
            "buffer" : 0,
            "byteLength" : 13896,
            "byteOffset" : 41688
        },
        {
            "buffer" : 0,
            "byteLength" : 13284,
            "byteOffset" : 55584
        },
        {
            "buffer" : 0,
            "byteLength" : 312734,
            "byteOffset" : 68868
        },
        {
            "buffer" : 0,
            "byteLength" : 5616,
            "byteOffset" : 381604
        },
        {
            "buffer" : 0,
            "byteLength" : 5616,
            "byteOffset" : 387220
        },
        {
            "buffer" : 0,
            "byteLength" : 3744,
            "byteOffset" : 392836
        },
        {
            "buffer" : 0,
            "byteLength" : 3936,
            "byteOffset" : 396580
        },
        {
            "buffer" : 0,
            "byteLength" : 3456,
            "byteOffset" : 400516
        },
        {
            "buffer" : 0,
            "byteLength" : 3456,
            "byteOffset" : 403972
        },
        {
            "buffer" : 0,
            "byteLength" : 2304,
            "byteOffset" : 407428
        },
        {
            "buffer" : 0,
            "byteLength" : 1536,
            "byteOffset" : 409732
        },
        {
            "buffer" : 0,
            "byteLength" : 14868,
            "byteOffset" : 411268
        },
        {
            "buffer" : 0,
            "byteLength" : 14868,
            "byteOffset" : 426136
        },
        {
            "buffer" : 0,
            "byteLength" : 9912,
            "byteOffset" : 441004
        },
        {
            "buffer" : 0,
            "byteLength" : 7464,
            "byteOffset" : 450916
        }
    ],
    "samplers" : [
        {
            "magFilter" : 9729,
            "minFilter" : 9986
        }
    ],
    "buffers" : [
        {
            "byteLength" : 458380,
            "uri" : "data:application/octet-stream;base64,"
        }
    ]
}
