{
    "asset" : {
        "generator" : "Khronos glTF Blender I/O v1.4.40",
        "version" : "2.0"
    },
    "scene" : 0,
    "scenes" : [
        {
            "name" : "Scene",
            "nodes" : [
                0
            ]
        }
    ],
    "nodes" : [
        {
            "mesh" : 0,
            "name" : "Outfit.002.Suit.Grey"
        }
    ],
    "materials" : [
        {
            "doubleSided" : true,
            "emissiveFactor" : [
                1,
                1,
                1
            ],
            "emissiveTexture" : {
                "index" : 0,
                "texCoord" : 0
            },
            "name" : "Outfit.002.Suit.Grey_BAKED.002",
            "pbrMetallicRoughness" : {
                "baseColorFactor" : [
                    0.800000011920929,
                    0.800000011920929,
                    0.800000011920929,
                    1
                ],
                "metallicFactor" : 0,
                "roughnessFactor" : 0.5
            }
        }
    ],
    "meshes" : [
        {
            "name" : "Vert.088",
            "primitives" : [
                {
                    "attributes" : {
                        "POSITION" : 0,
                        "NORMAL" : 1,
                        "TEXCOORD_0" : 2
                    },
                    "indices" : 3,
                    "material" : 0
                },
                {
                    "attributes" : {
                        "POSITION" : 4,
                        "NORMAL" : 5,
                        "TEXCOORD_0" : 6
                    },
                    "indices" : 7,
                    "material" : 0
                },
                {
                    "attributes" : {
                        "POSITION" : 8,
                        "NORMAL" : 9,
                        "TEXCOORD_0" : 10
                    },
                    "indices" : 11,
                    "material" : 0
                },
                {
                    "attributes" : {
                        "POSITION" : 12,
                        "NORMAL" : 13,
                        "TEXCOORD_0" : 14
                    },
                    "indices" : 15,
                    "material" : 0
                },
                {
                    "attributes" : {
                        "POSITION" : 16,
                        "NORMAL" : 17,
                        "TEXCOORD_0" : 18
                    },
                    "indices" : 19,
                    "material" : 0
                }
            ]
        }
    ],
    "textures" : [
        {
            "sampler" : 0,
            "source" : 0
        }
    ],
    "images" : [
        {
            "bufferView" : 4,
            "mimeType" : "image/png",
            "name" : "xz-512"
        }
    ],
    "accessors" : [
        {
            "bufferView" : 0,
            "componentType" : 5126,
            "count" : 322,
            "max" : [
                0.16549167037010193,
                1.5232746601104736,
                0.11382867395877838
            ],
            "min" : [
                -0.16549167037010193,
                0.9225854873657227,
                -0.10651658475399017
            ],
            "type" : "VEC3"
        },
        {
            "bufferView" : 1,
            "componentType" : 5126,
            "count" : 322,
            "type" : "VEC3"
        },
        {
            "bufferView" : 2,
            "componentType" : 5126,
            "count" : 322,
            "type" : "VEC2"
        },
        {
            "bufferView" : 3,
            "componentType" : 5123,
            "count" : 954,
            "type" : "SCALAR"
        },
        {
            "bufferView" : 5,
            "componentType" : 5126,
            "count" : 1331,
            "max" : [
                0.47263169288635254,
                1.4987378120422363,
                0.12888431549072266
            ],
            "min" : [
                -0.47263169288635254,
                0.12036752700805664,
                -0.1751372516155243
            ],
            "type" : "VEC3"
        },
        {
            "bufferView" : 6,
            "componentType" : 5126,
            "count" : 1331,
            "type" : "VEC3"
        },
        {
            "bufferView" : 7,
            "componentType" : 5126,
            "count" : 1331,
            "type" : "VEC2"
        },
        {
            "bufferView" : 8,
            "componentType" : 5123,
            "count" : 5298,
            "type" : "SCALAR"
        },
        {
            "bufferView" : 9,
            "componentType" : 5126,
            "count" : 128,
            "max" : [
                0.05830397456884384,
                1.4694002866744995,
                0.11973325908184052
            ],
            "min" : [
                -0.05830397456884384,
                1.2125539779663086,
                0.04743326082825661
            ],
            "type" : "VEC3"
        },
        {
            "bufferView" : 10,
            "componentType" : 5126,
            "count" : 128,
            "type" : "VEC3"
        },
        {
            "bufferView" : 11,
            "componentType" : 5126,
            "count" : 128,
            "type" : "VEC2"
        },
        {
            "bufferView" : 12,
            "componentType" : 5123,
            "count" : 288,
            "type" : "SCALAR"
        },
        {
            "bufferView" : 13,
            "componentType" : 5126,
            "count" : 1340,
            "max" : [
                0.16272999346256256,
                0.0929906964302063,
                0.1981995850801468
            ],
            "min" : [
                -0.16272999346256256,
                -7.638626266270876e-05,
                -0.06645524501800537
            ],
            "type" : "VEC3"
        },
        {
            "bufferView" : 14,
            "componentType" : 5126,
            "count" : 1340,
            "type" : "VEC3"
        },
        {
            "bufferView" : 15,
            "componentType" : 5126,
            "count" : 1340,
            "type" : "VEC2"
        },
        {
            "bufferView" : 16,
            "componentType" : 5123,
            "count" : 5052,
            "type" : "SCALAR"
        },
        {
            "bufferView" : 17,
            "componentType" : 5126,
            "count" : 413,
            "max" : [
                0.16545340418815613,
                0.017891433089971542,
                0.20596347749233246
            ],
            "min" : [
                -0.16545340418815613,
                -0.0011612407397478819,
                -0.07246691733598709
            ],
            "type" : "VEC3"
        },
        {
            "bufferView" : 18,
            "componentType" : 5126,
            "count" : 413,
            "type" : "VEC3"
        },
        {
            "bufferView" : 19,
            "componentType" : 5126,
            "count" : 413,
            "type" : "VEC2"
        },
        {
            "bufferView" : 20,
            "componentType" : 5123,
            "count" : 1584,
            "type" : "SCALAR"
        }
    ],
    "bufferViews" : [
        {
            "buffer" : 0,
            "byteLength" : 3864,
            "byteOffset" : 0
        },
        {
            "buffer" : 0,
            "byteLength" : 3864,
            "byteOffset" : 3864
        },
        {
            "buffer" : 0,
            "byteLength" : 2576,
            "byteOffset" : 7728
        },
        {
            "buffer" : 0,
            "byteLength" : 1908,
            "byteOffset" : 10304
        },
        {
            "buffer" : 0,
            "byteLength" : 310346,
            "byteOffset" : 12212
        },
        {
            "buffer" : 0,
            "byteLength" : 15972,
            "byteOffset" : 322560
        },
        {
            "buffer" : 0,
            "byteLength" : 15972,
            "byteOffset" : 338532
        },
        {
            "buffer" : 0,
            "byteLength" : 10648,
            "byteOffset" : 354504
        },
        {
            "buffer" : 0,
            "byteLength" : 10596,
            "byteOffset" : 365152
        },
        {
            "buffer" : 0,
            "byteLength" : 1536,
            "byteOffset" : 375748
        },
        {
            "buffer" : 0,
            "byteLength" : 1536,
            "byteOffset" : 377284
        },
        {
            "buffer" : 0,
            "byteLength" : 1024,
            "byteOffset" : 378820
        },
        {
            "buffer" : 0,
            "byteLength" : 576,
            "byteOffset" : 379844
        },
        {
            "buffer" : 0,
            "byteLength" : 16080,
            "byteOffset" : 380420
        },
        {
            "buffer" : 0,
            "byteLength" : 16080,
            "byteOffset" : 396500
        },
        {
            "buffer" : 0,
            "byteLength" : 10720,
            "byteOffset" : 412580
        },
        {
            "buffer" : 0,
            "byteLength" : 10104,
            "byteOffset" : 423300
        },
        {
            "buffer" : 0,
            "byteLength" : 4956,
            "byteOffset" : 433404
        },
        {
            "buffer" : 0,
            "byteLength" : 4956,
            "byteOffset" : 438360
        },
        {
            "buffer" : 0,
            "byteLength" : 3304,
            "byteOffset" : 443316
        },
        {
            "buffer" : 0,
            "byteLength" : 3168,
            "byteOffset" : 446620
        }
    ],
    "samplers" : [
        {
            "magFilter" : 9729,
            "minFilter" : 9986
        }
    ],
    "buffers" : [
        {
            "byteLength" : 449788,
            "uri" : "data:application/octet-stream;base64,"
        }
    ]
}
