{
    "asset" : {
        "generator" : "Khronos glTF Blender I/O v1.4.40",
        "version" : "2.0"
    },
    "scene" : 0,
    "scenes" : [
        {
            "name" : "Scene",
            "nodes" : [
                0,
                1,
                2
            ]
        }
    ],
    "nodes" : [
        {
            "mesh" : 0,
            "name" : "ej_back",
			"extensions": {
				"visible": false
			}
        },
        {
            "mesh" : 1,
            "name" : "exm_back",
			"extensions": {
				"visible": false
			}
        },
        {
            "mesh" : 2,
            "name" : "qhxt_back",
			"extensions": {
				"visible": false
			}
        }
    ],
    "materials" : [
        {
            "doubleSided" : true,
            "emissiveFactor" : [
                1,
                1,
                1
            ],
            "emissiveTexture" : {
                "index" : 0,
                "texCoord" : 0
            },
            "name" : "kxg_BAKED.001",
            "pbrMetallicRoughness" : {
                "baseColorFactor" : [
                    0.800000011920929,
                    0.800000011920929,
                    0.800000011920929,
                    1
                ],
                "metallicFactor" : 0,
                "roughnessFactor" : 0.5
            }
        },
        {
            "doubleSided" : true,
            "emissiveFactor" : [
                1,
                1,
                1
            ],
            "emissiveTexture" : {
                "index" : 1,
                "texCoord" : 0
            },
            "name" : "plane.005_BAKED",
            "pbrMetallicRoughness" : {
                "baseColorFactor" : [
                    0.800000011920929,
                    0.800000011920929,
                    0.800000011920929,
                    1
                ],
                "metallicFactor" : 0,
                "roughnessFactor" : 0.5
            }
        },
        {
            "doubleSided" : true,
            "emissiveFactor" : [
                1,
                1,
                1
            ],
            "emissiveTexture" : {
                "index" : 2,
                "texCoord" : 0
            },
            "name" : "Cylinder.003_BAKED.001",
            "pbrMetallicRoughness" : {
                "baseColorFactor" : [
                    0.800000011920929,
                    0.800000011920929,
                    0.800000011920929,
                    1
                ],
                "metallicFactor" : 0,
                "roughnessFactor" : 0.5
            }
        },
        {
            "doubleSided" : true,
            "emissiveFactor" : [
                1,
                1,
                1
            ],
            "emissiveTexture" : {
                "index" : 3,
                "texCoord" : 0
            },
            "name" : "xhxt_back_BAKED",
            "pbrMetallicRoughness" : {
                "baseColorFactor" : [
                    0.800000011920929,
                    0.800000011920929,
                    0.800000011920929,
                    1
                ],
                "metallicFactor" : 0,
                "roughnessFactor" : 0.5
            }
        }
    ],
    "meshes" : [
        {
            "name" : "Cap_1.014",
            "primitives" : [
                {
                    "attributes" : {
                        "POSITION" : 0,
                        "NORMAL" : 1,
                        "TEXCOORD_0" : 2
                    },
                    "indices" : 3,
                    "material" : 0
                }
            ]
        },
        {
            "name" : "Cap_1.017",
            "primitives" : [
                {
                    "attributes" : {
                        "POSITION" : 4,
                        "NORMAL" : 5,
                        "TEXCOORD_0" : 6
                    },
                    "indices" : 7,
                    "material" : 1
                },
                {
                    "attributes" : {
                        "POSITION" : 8,
                        "NORMAL" : 9,
                        "TEXCOORD_0" : 10
                    },
                    "indices" : 11,
                    "material" : 2
                }
            ]
        },
        {
            "name" : "Cap_1.005",
            "primitives" : [
                {
                    "attributes" : {
                        "POSITION" : 12,
                        "NORMAL" : 13,
                        "TEXCOORD_0" : 14
                    },
                    "indices" : 7,
                    "material" : 3
                }
            ]
        }
    ],
    "textures" : [
        {
            "sampler" : 0,
            "source" : 0
        },
        {
            "sampler" : 0,
            "source" : 1
        },
        {
            "sampler" : 0,
            "source" : 2
        },
        {
            "sampler" : 0,
            "source" : 3
        }
    ],
    "images" : [
        {
            "bufferView" : 4,
            "mimeType" : "image/png",
            "name" : "ej_back_512"
        },
        {
            "bufferView" : 9,
            "mimeType" : "image/png",
            "name" : "plane-1024 (\u81ea\u5b9a\u4e49)"
        },
        {
            "bufferView" : 14,
            "mimeType" : "image/png",
            "name" : "tree-2048 (\u81ea\u5b9a\u4e49)"
        },
        {
            "bufferView" : 18,
            "mimeType" : "image/png",
            "name" : "qhxt_back_512"
        }
    ],
    "accessors" : [
        {
            "bufferView" : 0,
            "componentType" : 5126,
            "count" : 16,
            "max" : [
                100.10530853271484,
                195.96324157714844,
                116.74392700195312
            ],
            "min" : [
                -159.1448211669922,
                -0.08658623695373535,
                -121.1824951171875
            ],
            "type" : "VEC3"
        },
        {
            "bufferView" : 1,
            "componentType" : 5126,
            "count" : 16,
            "type" : "VEC3"
        },
        {
            "bufferView" : 2,
            "componentType" : 5126,
            "count" : 16,
            "type" : "VEC2"
        },
        {
            "bufferView" : 3,
            "componentType" : 5123,
            "count" : 42,
            "type" : "SCALAR"
        },
        {
            "bufferView" : 5,
            "componentType" : 5126,
            "count" : 18,
            "max" : [
                96.00825500488281,
                197.5415802001953,
                299.4222717285156
            ],
            "min" : [
                -156.79331970214844,
                -0.017491698265075684,
                41.958831787109375
            ],
            "type" : "VEC3"
        },
        {
            "bufferView" : 6,
            "componentType" : 5126,
            "count" : 18,
            "type" : "VEC3"
        },
        {
            "bufferView" : 7,
            "componentType" : 5126,
            "count" : 18,
            "type" : "VEC2"
        },
        {
            "bufferView" : 8,
            "componentType" : 5123,
            "count" : 42,
            "type" : "SCALAR"
        },
        {
            "bufferView" : 10,
            "componentType" : 5126,
            "count" : 9792,
            "max" : [
                -15.323301315307617,
                16.439401626586914,
                166.6331024169922
            ],
            "min" : [
                -54.587791442871094,
                -0.996362566947937,
                138.90597534179688
            ],
            "type" : "VEC3"
        },
        {
            "bufferView" : 11,
            "componentType" : 5126,
            "count" : 9792,
            "type" : "VEC3"
        },
        {
            "bufferView" : 12,
            "componentType" : 5126,
            "count" : 9792,
            "type" : "VEC2"
        },
        {
            "bufferView" : 13,
            "componentType" : 5123,
            "count" : 13464,
            "type" : "SCALAR"
        },
        {
            "bufferView" : 15,
            "componentType" : 5126,
            "count" : 18,
            "max" : [
                352.74298095703125,
                267.6812438964844,
                267.7996826171875
            ],
            "min" : [
                -178.7662353515625,
                0.021238580346107483,
                -257.35833740234375
            ],
            "type" : "VEC3"
        },
        {
            "bufferView" : 16,
            "componentType" : 5126,
            "count" : 18,
            "type" : "VEC3"
        },
        {
            "bufferView" : 17,
            "componentType" : 5126,
            "count" : 18,
            "type" : "VEC2"
        }
    ],
    "bufferViews" : [
        {
            "buffer" : 0,
            "byteLength" : 192,
            "byteOffset" : 0
        },
        {
            "buffer" : 0,
            "byteLength" : 192,
            "byteOffset" : 192
        },
        {
            "buffer" : 0,
            "byteLength" : 128,
            "byteOffset" : 384
        },
        {
            "buffer" : 0,
            "byteLength" : 84,
            "byteOffset" : 512
        },
        {
            "buffer" : 0,
            "byteLength" : 141709,
            "byteOffset" : 596
        },
        {
            "buffer" : 0,
            "byteLength" : 216,
            "byteOffset" : 142308
        },
        {
            "buffer" : 0,
            "byteLength" : 216,
            "byteOffset" : 142524
        },
        {
            "buffer" : 0,
            "byteLength" : 144,
            "byteOffset" : 142740
        },
        {
            "buffer" : 0,
            "byteLength" : 84,
            "byteOffset" : 142884
        },
        {
            "buffer" : 0,
            "byteLength" : 153023,
            "byteOffset" : 142968
        },
        {
            "buffer" : 0,
            "byteLength" : 117504,
            "byteOffset" : 295992
        },
        {
            "buffer" : 0,
            "byteLength" : 117504,
            "byteOffset" : 413496
        },
        {
            "buffer" : 0,
            "byteLength" : 78336,
            "byteOffset" : 531000
        },
        {
            "buffer" : 0,
            "byteLength" : 26928,
            "byteOffset" : 609336
        },
        {
            "buffer" : 0,
            "byteLength" : 452918,
            "byteOffset" : 636264
        },
        {
            "buffer" : 0,
            "byteLength" : 216,
            "byteOffset" : 1089184
        },
        {
            "buffer" : 0,
            "byteLength" : 216,
            "byteOffset" : 1089400
        },
        {
            "buffer" : 0,
            "byteLength" : 144,
            "byteOffset" : 1089616
        },
        {
            "buffer" : 0,
            "byteLength" : 121973,
            "byteOffset" : 1089760
        }
    ],
    "samplers" : [
        {
            "magFilter" : 9729,
            "minFilter" : 9986
        }
    ],
    "buffers" : [
        {
            "byteLength" : 1211736,
            "uri" : "data:application/octet-stream;base64,"
        }
    ]
}
